<?xml version="1.0" encoding="UTF-8"?>
<!-- Generator: Adobe Illustrator 21.1.0, SVG Export Plug-In . SVG Version: 6.00 Build 0)  -->
<svg version="1.1" id="Capa_1" xmlns="http://www.w3.org/2000/svg" xmlns:xlink="http://www.w3.org/1999/xlink" x="0px" y="0px" viewBox="0 0 46.7 46.7" style="enable-background:new 0 0 46.7 46.7;" xml:space="preserve">
<style type="text/css">
	.st1{fill:#6BB539;}
	.st2{fill:#FBC624;}
	.st3{fill:#D43C40;}
	.st4{fill:#5669AB;}
</style>
<g>
	<g>
		<path class="st1" d="M21.1,43.6c1.5,1.2,3.6,1.2,5,0c1.8-1.4,4.6-4,9.2-8.5s7.2-7.4,8.6-9.2c1.2-1.5,1.2-3.5,0-5    c-0.6-0.7-1.4-1.7-2.5-2.9L18.2,41.1C19.4,42.2,20.3,43,21.1,43.6z"/>
		<path class="st2" d="M17.5,40.5l23.3-23.2c-1.3-1.4-3-3.2-5.1-5.2L12.2,35.4C14.3,37.5,16,39.2,17.5,40.5z"/>
		<path class="st3" d="M11.5,34.7L35,11.4c-2.1-2.1-3.8-3.7-5.3-5L6.4,29.5C7.7,30.9,9.4,32.6,11.5,34.7z"/>
		<path class="st4" d="M26.1,3.2c-1.5-1.2-3.6-1.2-5,0c-1.8,1.4-4.6,4-9.2,8.5c-4.6,4.6-7.2,7.4-8.6,9.2c-1.1,1.4-1.1,3.6,0,5    c0.6,0.7,1.4,1.7,2.5,2.9L29,5.7C27.8,4.6,26.8,3.8,26.1,3.2z"/>
	</g>
</g>
</svg>